<svg width="130" height="48" viewBox="0 0 130 48" fill="none" xmlns="http://www.w3.org/2000/svg">
<g style="mix-blend-mode:luminosity" clip-path="url(#clip0_333_1360)">
<path d="M14.7139 13.1064V22.1942H5.29696V13.1064H0.826172V34.7997H5.29696V26.0071H14.7139V34.7997H19.1847V13.1064H14.7139Z" fill="#33475B"/>
<path d="M33.4929 27.7869C33.4929 28.6563 33.1032 29.4901 32.4096 30.1049C31.716 30.7196 30.7752 31.065 29.7943 31.065C28.8133 31.065 27.8726 30.7196 27.1789 30.1049C26.4853 29.4901 26.0956 28.6563 26.0956 27.7869V18.4953H21.8548V27.7869C21.8548 29.6513 22.6905 31.4394 24.178 32.7578C25.6655 34.0761 27.683 34.8168 29.7866 34.8168C31.8902 34.8168 33.9077 34.0761 35.3952 32.7578C36.8827 31.4394 37.7184 29.6513 37.7184 27.7869V18.4953H33.4929V27.7869Z" fill="#33475B"/>
<path d="M64.9143 19.4529C64.9143 17.5484 66.3359 16.9446 67.8933 16.9446C69.1485 16.9446 70.8067 17.7911 71.891 18.8181L74.6685 15.9176C73.282 14.2558 70.4694 13.1065 68.1672 13.1065C63.5671 13.1065 60.2398 15.4944 60.2398 19.4529C60.2398 26.7973 70.3686 24.4676 70.3686 28.5775C70.3686 29.8453 68.9798 30.9655 67.3895 30.9655C64.8814 30.9655 64.0688 29.8783 62.9166 28.729L59.8345 31.5693C61.806 33.7145 64.2374 34.8036 67.1508 34.8036C71.5208 34.8036 75.0365 32.3866 75.0365 28.6086C75.0365 20.4547 64.9077 22.9882 64.9077 19.4529" fill="#33475B"/>
<path d="M127.576 31.3341C125.07 31.3341 124.358 30.3731 124.358 28.9015V22.3881H128.252V19.0877H124.358V14.7331L120.058 16.4435V29.7111C120.058 33.1047 122.699 34.815 126.323 34.815C126.891 34.8242 127.459 34.7839 128.018 34.6947L129.067 31.272C128.594 31.3011 128.051 31.3302 127.576 31.3302" fill="#33475B"/>
<path d="M49.6357 18.6049C47.535 18.6049 46.0695 19.1446 44.6523 20.3774V13.2369H40.4049V26.4715C40.4049 31.4259 44.4464 34.8195 48.9873 34.8195C54.0254 34.8195 58.4568 31.3658 58.4568 26.7141C58.4568 22.1208 54.3781 18.6068 49.6357 18.6068V18.6049ZM49.6094 31.0318C48.6563 31.0318 47.7245 30.7813 46.932 30.312C46.1396 29.8427 45.5219 29.1757 45.1571 28.3952C44.7924 27.6148 44.697 26.756 44.8829 25.9275C45.0688 25.099 45.5278 24.3379 46.2018 23.7406C46.8757 23.1433 47.7344 22.7365 48.6692 22.5717C49.604 22.4069 50.573 22.4915 51.4536 22.8148C52.3341 23.138 53.0868 23.6855 53.6163 24.3878C54.1458 25.0902 54.4285 25.916 54.4285 26.7607C54.4285 27.8935 53.9207 28.9799 53.017 29.7809C52.1132 30.5818 50.8875 31.0318 49.6094 31.0318Z" fill="#33475B"/>
<path d="M95.754 26.5153C95.754 21.8559 91.3314 18.4099 86.2845 18.4099C81.7436 18.4099 77.7022 21.8035 77.7022 26.758V40.0003H81.9495V32.8501C83.3646 34.0809 84.8322 34.6226 86.9307 34.6226C91.6731 34.6226 95.7518 31.1106 95.7518 26.5153H95.754ZM91.7323 26.4687C91.7323 27.3134 91.4496 28.1392 90.9201 28.8416C90.3906 29.544 89.6379 30.0914 88.7574 30.4147C87.8768 30.7379 86.9078 30.8225 85.973 30.6577C85.0382 30.4929 84.1796 30.0861 83.5056 29.4888C82.8316 28.8915 82.3727 28.1304 82.1867 27.3019C82.0008 26.4734 82.0962 25.6146 82.461 24.8342C82.8257 24.0538 83.4434 23.3867 84.2359 22.9174C85.0284 22.4481 85.9601 22.1976 86.9132 22.1976C88.1913 22.1976 89.417 22.6476 90.3208 23.4486C91.2245 24.2495 91.7323 25.3359 91.7323 26.4687Z" fill="#33475B"/>
<path d="M109.433 18.3496V14.6066C109.991 14.3756 110.464 14.0088 110.796 13.5489C111.128 13.089 111.305 12.555 111.308 12.009V11.9216C111.306 11.1587 110.963 10.4276 110.354 9.88807C109.745 9.34858 108.92 9.04458 108.059 9.04254H107.961C107.1 9.04458 106.275 9.34858 105.666 9.88807C105.058 10.4276 104.715 11.1587 104.712 11.9216V12.009C104.715 12.555 104.893 13.089 105.225 13.5489C105.557 14.0088 106.029 14.3756 106.587 14.6066V18.3496C104.983 18.5671 103.471 19.1565 102.206 20.0581L90.61 12.0614C90.6926 11.7976 90.7368 11.5256 90.7415 11.2519C90.7423 10.6095 90.5283 9.98128 90.1263 9.44673C89.7243 8.91217 89.1526 8.49527 88.4833 8.24873C87.814 8.00219 87.0772 7.93708 86.3661 8.06166C85.6551 8.18623 85.0017 8.49487 84.4886 8.94857C83.9754 9.40226 83.6256 9.98063 83.4834 10.6105C83.3411 11.2404 83.4128 11.8936 83.6894 12.4873C83.966 13.0811 84.435 13.5889 85.0372 13.9464C85.6393 14.3039 86.3476 14.4952 87.0724 14.496C87.7091 14.4939 88.3339 14.3432 88.8839 14.0591L100.285 21.9257C99.2585 23.2989 98.7227 24.9146 98.7481 26.5619C98.7735 28.2091 99.3589 29.8113 100.428 31.1591L96.9581 34.2343C96.6795 34.1557 96.3895 34.1138 96.0972 34.11C95.5015 34.11 94.9192 34.2666 94.4239 34.5599C93.9286 34.8532 93.5425 35.2701 93.3146 35.7579C93.0866 36.2457 93.027 36.7824 93.1432 37.3002C93.2594 37.818 93.5462 38.2937 93.9675 38.667C94.3887 39.0403 94.9254 39.2946 95.5096 39.3976C96.0939 39.5006 96.6995 39.4477 97.2498 39.2457C97.8002 39.0436 98.2706 38.7015 98.6015 38.2625C98.9325 37.8235 99.1091 37.3074 99.1091 36.7794C99.1051 36.5204 99.0579 36.2633 98.969 36.0165L102.401 32.9743C103.522 33.7328 104.823 34.2544 106.206 34.4993C107.588 34.7441 109.016 34.7058 110.379 34.3871C111.742 34.0685 113.006 33.478 114.072 32.6607C115.139 31.8434 115.981 30.8209 116.533 29.6713C117.086 28.5217 117.335 27.2754 117.261 26.0275C117.188 24.7796 116.793 23.5631 116.108 22.4709C115.423 21.3786 114.466 20.4395 113.309 19.7253C112.152 19.0111 110.826 18.5405 109.433 18.3496ZM108.011 30.6621C107.072 30.6621 106.154 30.4152 105.373 29.9527C104.592 29.4902 103.983 28.8329 103.624 28.0638C103.264 27.2947 103.17 26.4484 103.354 25.632C103.537 24.8155 103.989 24.0655 104.653 23.4769C105.317 22.8883 106.164 22.4874 107.085 22.325C108.006 22.1626 108.961 22.2459 109.829 22.5645C110.696 22.8831 111.438 23.4225 111.96 24.1147C112.482 24.8069 112.76 25.6206 112.76 26.4531C112.76 27.5694 112.26 28.6399 111.369 29.4293C110.479 30.2186 109.271 30.6621 108.011 30.6621Z" fill="#FF7A59"/>
</g>
<defs>
<clipPath id="clip0_333_1360">
<rect width="128.626" height="48" fill="white" transform="translate(0.826172)"/>
</clipPath>
</defs>
</svg>
