<svg width="128" height="48" viewBox="0 0 128 48" fill="none" xmlns="http://www.w3.org/2000/svg">
<g style="mix-blend-mode:luminosity" clip-path="url(#clip0_333_1359)">
<path fill-rule="evenodd" clip-rule="evenodd" d="M126.301 30.5633C121.046 38.4606 112.722 36.1691 110.223 34.3749C109.159 35.0147 107.293 36.417 104.806 36.255C99.5079 35.9104 97.6108 29.2007 97.6108 29.2007C97.6489 29.2275 96.0328 29.6949 95.1594 29.6866C95.1481 31.6542 93.229 36.3546 88.0497 36.2945C82.2377 36.2273 81.0562 28.5531 81.0562 28.5531C81.0562 28.5531 80.4778 29.2649 78.2787 29.9739C78.3894 28.4622 78.3085 36.0644 71.3426 36.1761C65.8356 36.2646 64.3491 28.4348 64.3491 28.4348C64.3491 28.4348 63.3937 29.3143 61.5423 29.6194C61.66 28.0831 61.4687 36.2019 54.502 36.1761C49.794 36.1588 48.1851 31.353 48.3102 30.686C48.4699 29.8359 46.7191 36.2957 42.146 36.195C40.2588 36.1459 38.8518 34.9349 37.969 33.3204C36.7871 34.5189 35.0712 36.195 33.1463 36.195C29.691 36.195 28.1677 33.6337 28.4257 26.3179C28.4477 25.4502 28.3771 25.109 27.4038 24.9792C26.8197 24.8928 26.2215 24.7292 25.5885 24.643C25.3856 25.243 23.6649 35.9998 17.748 36.204C15.763 36.2725 14.6776 34.7485 13.7863 33.6174C12.4199 35.2194 10.6162 36.255 8.04666 36.255C3.69407 36.255 0.728516 33.1365 0.728516 29.2895C0.728516 25.4425 3.69407 22.3242 8.04666 22.3242C8.81624 22.3242 9.03228 22.422 9.73533 22.6038C8.28947 10.9365 11.704 9.11303 14.691 9.11303C17.5587 9.11303 22.4579 15.012 15.5643 29.9751C17.0948 34.4381 20.3943 34.1857 21.9798 24.9982C22.3025 23.1307 21.4396 20.6105 22.7817 20.2588C25.235 19.616 25.4953 21.5446 26.6456 21.866C27.8619 22.2056 28.5718 22.1724 29.7395 22.3885C31.7347 22.7339 32.5133 23.6838 32.2702 25.7996C31.9783 28.4767 31.4676 32.3732 33.0247 32.8481C34.1475 33.1931 36.1975 31.1293 36.5572 30.0001C36.9168 28.871 36.992 28.4845 37.0239 27.6563C37.0726 25.8861 37.1336 24.5886 37.4742 23.2499C37.62 22.7319 37.7861 22.3888 38.4474 22.3654C38.9915 22.3531 39.9866 22.2079 40.4246 22.51C41.0084 22.8988 40.9354 23.2933 40.8684 24.3316C40.1894 39.1353 45.4154 31.7452 46.9736 25.8279C46.4188 19.1369 46.7997 9.23555 51.5305 9.06949C53.991 8.98313 55.0787 10.7301 55.1983 12.034C55.5367 15.7168 53.6411 21.8172 51.1481 25.9197C49.7233 34.2907 57.3777 35.9459 58.6018 29.2642C56.5991 28.4202 54.4348 25.0044 56.196 23.3397C57.1843 22.4055 61.2981 23.7476 61.3654 26.6748C63.3833 26.1965 63.6527 25.1867 63.6807 25.354C63.126 18.663 63.6405 9.23564 68.3717 9.06957C70.8317 8.98321 71.9193 10.7301 72.039 12.0341C72.3774 15.7168 70.4817 21.8173 67.9891 25.9199C66.5641 34.2907 74.2187 35.946 75.4425 29.2643C73.9597 29.0107 70.8298 25.3775 72.6357 23.3398C73.6008 22.2509 77.6995 24.5154 78.1584 26.7717C80.0969 26.2855 80.3601 25.3078 80.3879 25.4724C79.8331 18.7816 80.3476 9.35422 85.0787 9.18815C87.5388 9.10179 88.6264 10.8487 88.746 12.1527C89.0844 15.8354 87.1888 21.936 84.6958 26.0385C83.2712 34.4095 90.9256 36.0644 92.1497 29.3827C90.1121 29.082 87.2163 25.2458 89.547 23.2833C90.4782 22.4992 94.0362 24.5346 94.8691 26.8568C96.0263 26.8173 96.7467 26.4636 96.9011 26.4279C95.0536 18.573 96.4289 9.14836 101.518 9.06969C104.269 9.02721 106.959 10.3877 105.778 17.8606C104.651 24.9906 100.601 27.9827 100.611 28.0285C100.846 28.8827 102.925 36.0312 108.158 32.2594C107.887 31.7157 107.616 31.1603 107.464 30.4874C106.597 26.5677 108.301 22.1404 112.932 21.4249C115.585 21.0149 118.085 22.1598 118.48 24.741C119.13 28.9645 114.827 32.0233 113.191 32.6868C112.458 32.3178 119.834 36.5107 124.212 28.108C124.466 27.6282 124.772 27.6689 125.168 27.9162C125.448 28.0908 127.043 29.4299 126.301 30.5633ZM11.2128 28.2517C10.99 27.6615 10.5329 26.361 10.3713 25.7976C9.48104 25.1114 8.84561 25 7.70291 25C5.16348 25 3.66882 27.0809 3.66882 29.3247C3.66882 31.5684 5.29714 33.6496 7.83659 33.6496C10.0373 33.6496 11.7123 32.3235 12.2233 30.4462C11.8656 29.7143 11.5108 29.0417 11.2128 28.2517ZM14.6288 12.2015C12.8445 12.2015 12.2392 15.974 12.3566 19.1924C12.4605 22.0378 13.3576 24.5428 13.823 25.6653C13.9412 25.8059 13.9192 25.7144 14.0247 25.8636C17.1229 19.8472 15.8379 12.2015 14.6288 12.2015ZM51.7854 12.32C49.4792 12.0855 49.4941 20.6001 49.7804 22.51C50.9782 20.8118 53.0588 12.7772 51.7854 12.32ZM68.626 12.32C66.3198 12.0855 66.3347 20.6001 66.6212 22.51C67.8188 20.8118 69.8996 12.7772 68.626 12.32ZM85.3333 12.4384C83.0269 12.204 83.0418 20.7186 83.3283 22.6287C84.5259 20.9303 86.6067 12.8956 85.3333 12.4384ZM101.773 11.8215C98.1798 12.461 99.0164 23.0789 99.5622 24.9412C103.795 19.789 103.882 11.628 101.773 11.8215ZM115.239 25.0903C115.056 24.4133 114.143 24.0515 113.512 24.1407C111.708 24.359 109.959 26.3505 110.636 29.3824C110.787 30.0576 111.164 30.6792 111.158 30.6585C115.195 28.2577 115.539 26.3659 115.239 25.0903ZM39.1547 20.0218C38.639 20.0219 38.135 19.8864 37.7062 19.6326C37.2774 19.3787 36.9432 19.0179 36.7457 18.5957C36.5483 18.1735 36.4967 17.7089 36.5973 17.2607C36.6977 16.8124 36.9461 16.4007 37.3107 16.0775C37.6753 15.7543 38.1398 15.5342 38.6455 15.4451C39.1512 15.3559 39.6755 15.4016 40.1519 15.5765C40.6283 15.7514 41.0354 16.0476 41.3219 16.4276C41.6083 16.8076 41.7612 17.2544 41.7612 17.7114C41.7612 18.0148 41.6939 18.3152 41.5628 18.5955C41.4319 18.8758 41.2399 19.1305 40.9978 19.345C40.7557 19.5596 40.4685 19.7298 40.1522 19.8459C39.836 19.962 39.4971 20.0218 39.1547 20.0218Z" fill="#0D0C22"/>
</g>
<defs>
<clipPath id="clip0_333_1359">
<rect width="126.369" height="48" fill="white" transform="translate(0.728516)"/>
</clipPath>
</defs>
</svg>
