<svg width="126" height="48" viewBox="0 0 126 48" fill="none" xmlns="http://www.w3.org/2000/svg">
<g style="mix-blend-mode:luminosity" clip-path="url(#clip0_333_1362)">
<path d="M17.679 38.0663C15.7949 38.3595 13.8776 38.4474 11.8943 38.6816L5.84501 22.9786V39.3555C3.96091 39.5313 2.24206 39.7656 0.457031 40V10H5.48162L12.357 27.0217V10H17.679V38.0663ZM28.0915 20.9863C30.1411 20.9863 33.2814 20.8984 35.1655 20.8984V25.5858C32.8184 25.5858 30.075 25.5858 28.0915 25.6737V32.6465C31.1989 32.4708 34.3061 32.2362 37.4462 32.1483V36.6597L22.8025 37.6854V10H37.4462V14.6875H28.0915V20.9863ZM57.1143 14.6876H51.6271V36.2501C49.8421 36.2501 48.0571 36.2501 46.3385 36.3085V14.6876H40.8513V10H57.1145L57.1143 14.6876ZM65.7087 20.6642H72.948V25.3516H65.7087V35.9864H60.5186V10H75.2949V14.6875H65.7087V20.6642ZM83.8893 31.8848C86.8975 31.9432 89.9384 32.1486 92.8805 32.2948V36.9238C88.1536 36.66 83.4266 36.3966 78.6005 36.3085V10H83.8893V31.8848ZM97.3429 37.2461C99.0288 37.3341 100.814 37.422 102.533 37.5975V10H97.3429V37.2461ZM125.705 10L118.994 24.2676L125.705 40C123.721 39.7656 121.738 39.4433 119.755 39.1503L115.953 30.4786L112.086 38.4474C110.169 38.1542 108.318 38.0663 106.401 37.8319L113.21 24.0917L107.062 10H112.747L116.218 17.8809L119.92 10H125.705V10Z" fill="#D81F26"/>
</g>
<defs>
<clipPath id="clip0_333_1362">
<rect width="125.241" height="48" fill="white" transform="translate(0.457031)"/>
</clipPath>
</defs>
</svg>
