<svg width="146" height="48" viewBox="0 0 146 48" fill="none" xmlns="http://www.w3.org/2000/svg">
<g style="mix-blend-mode:luminosity" clip-path="url(#clip0_333_1361)">
<path d="M50.8805 34.7749V20.2199H51.1731L63.127 34.7749H66.8887V13.4006H62.709V27.919H62.4165L50.4625 13.4006H46.7008V34.7749H50.8805ZM78.7173 35.1049C84.2345 35.1049 87.6201 31.9519 87.6201 26.6725C87.6201 21.4297 84.2345 18.2401 78.7173 18.2401C73.2419 18.2401 69.8145 21.4297 69.8145 26.6725C69.8563 31.9519 73.2001 35.1049 78.7173 35.1049ZM78.7173 32.0252C75.7915 32.0252 74.1196 30.0821 74.1196 26.6725C74.1196 23.2995 75.7915 21.3198 78.7173 21.3198C81.6431 21.3198 83.315 23.2995 83.315 26.6725C83.315 30.0821 81.6431 32.0252 78.7173 32.0252ZM91.4236 14.6105V18.68H88.4978V21.6131H91.4236V30.4487C91.4236 33.6017 93.0955 34.8483 97.3588 34.8483C98.1529 34.8483 98.9471 34.7749 99.574 34.6649V31.8053C99.0724 31.8419 98.7381 31.8786 98.1529 31.8786C96.3974 31.8786 95.6033 31.182 95.6033 29.5688V21.6131H99.574V18.68H95.6033V14.6105H91.4236ZM102.082 34.7749H106.262V18.5701H102.082V34.7749ZM104.172 15.8937C105.551 15.8937 106.68 14.9038 106.68 13.6939C106.68 12.4474 105.551 11.4575 104.172 11.4575C102.792 11.4575 101.664 12.4474 101.664 13.6939C101.664 14.9038 102.792 15.8937 104.172 15.8937ZM117.714 35.1049C123.231 35.1049 126.617 31.9519 126.617 26.6725C126.617 21.4297 123.231 18.2401 117.714 18.2401C112.239 18.2401 108.811 21.4297 108.811 26.6725C108.811 31.9519 112.155 35.1049 117.714 35.1049ZM117.714 32.0252C114.788 32.0252 113.116 30.0821 113.116 26.6725C113.116 23.2995 114.788 21.3198 117.714 21.3198C120.598 21.3198 122.312 23.2995 122.312 26.6725C122.27 30.0821 120.598 32.0252 117.714 32.0252ZM129.083 34.7749H133.262V25.3526C133.262 22.9696 134.851 21.4664 137.317 21.4664C139.866 21.4664 141.037 22.7129 141.037 25.1693V34.7749H145.216V24.2894C145.216 20.4032 142.959 18.2401 138.863 18.2401C136.105 18.2401 134.266 19.34 133.388 21.1731H133.095V18.5701H129.041C129.083 18.5701 129.083 34.7749 129.083 34.7749Z" fill="black"/>
<path fill-rule="evenodd" clip-rule="evenodd" d="M6.62459 12.0326C7.8411 12.9024 8.28111 12.8337 10.5588 12.6964L32.016 11.5519C32.4819 11.5519 32.0936 11.1399 31.9383 11.0941L28.3664 8.82806C27.6935 8.37028 26.7617 7.82093 25.0275 7.95826L4.26923 9.30874C3.51861 9.37741 3.36331 9.72075 3.67391 9.97254L6.62459 12.0326ZM7.91875 16.4502V36.4098C7.91875 37.4857 8.51406 37.8748 9.88587 37.8061L33.4654 36.593C34.8372 36.5243 34.9925 35.7918 34.9925 34.922V15.0998C34.9925 14.23 34.6043 13.7493 33.776 13.818L9.13525 15.0998C8.22935 15.1684 7.91875 15.5804 7.91875 16.4502ZM31.1877 17.5261C31.343 18.1212 31.1877 18.7392 30.5147 18.8079L29.3759 19.0139V33.7547C28.3923 34.2125 27.4864 34.4871 26.7099 34.4871C25.4934 34.4871 25.1828 34.1438 24.2769 33.1367L16.8484 22.8135V32.7933L19.2038 33.2511C19.2038 33.2511 19.2038 34.4642 17.3143 34.4642L12.0859 34.7389C11.9306 34.4642 12.0859 33.8005 12.6036 33.6631L13.9754 33.3198V20.1355L12.0859 19.9981C11.9306 19.403 12.3189 18.5332 13.3801 18.4645L18.9967 18.1212L26.7358 28.5588V19.3343L24.7687 19.1283C24.6134 18.3959 25.2346 17.8465 25.9852 17.7778L31.1877 17.5261ZM2.53505 7.47759L24.1475 6.08133C26.7876 5.87532 27.4864 6.01266 29.1429 7.08847L36.0278 11.3688C37.1667 12.1013 37.5549 12.3073 37.5549 13.1084V36.6159C37.5549 38.0808 36.9596 38.9506 34.8372 39.0879L9.75645 40.4384C8.1517 40.5071 7.40109 40.3011 6.57282 39.3626L1.47384 33.5258C0.567935 32.45 0.179688 31.6488 0.179688 30.7104V9.81231C0.179688 8.59917 0.800883 7.61492 2.53505 7.47759Z" fill="black"/>
</g>
<defs>
<clipPath id="clip0_333_1361">
<rect width="145.551" height="48" fill="white" transform="translate(0.179688)"/>
</clipPath>
</defs>
</svg>
